<svg width="18" height="20" viewBox="0 0 18 20" fill="none" xmlns="http://www.w3.org/2000/svg">
<path fill-rule="evenodd" clip-rule="evenodd" d="M4.95201 3.21315C4.95201 3.4973 4.83913 3.76981 4.63821 3.97073C4.43729 4.17165 4.16478 4.28453 3.88064 4.28453C3.59649 4.28453 3.32398 4.17165 3.12306 3.97073C2.92214 3.76981 2.80926 3.4973 2.80926 3.21315C2.80926 2.92901 2.92214 2.6565 3.12306 2.45558C3.32398 2.25466 3.59649 2.14178 3.88064 2.14178C4.16478 2.14178 4.43729 2.25466 4.63821 2.45558C4.83913 2.6565 4.95201 2.92901 4.95201 3.21315ZM4.95201 6.24443C5.66685 5.9917 6.26932 5.4944 6.65296 4.84042C7.03659 4.18644 7.17668 3.41789 7.04847 2.67061C6.92026 1.92333 6.532 1.24543 5.95231 0.756736C5.37262 0.268037 4.63883 0 3.88064 0C3.12244 0 2.38865 0.268037 1.80896 0.756736C1.22927 1.24543 0.841011 1.92333 0.712799 2.67061C0.584586 3.41789 0.724677 4.18644 1.10831 4.84042C1.49195 5.4944 2.09442 5.9917 2.80926 6.24443V7.49865C2.80926 8.35109 3.14789 9.16862 3.75066 9.77138C4.35342 10.3741 5.17095 10.7128 6.02339 10.7128H8.16613V13.7526C7.4509 14.0054 6.84805 14.5028 6.46415 15.1571C6.08024 15.8114 5.94 16.5803 6.06822 17.328C6.19644 18.0756 6.58486 18.7539 7.16482 19.2428C7.74478 19.7318 8.47893 20 9.23751 20C9.99609 20 10.7302 19.7318 11.3102 19.2428C11.8902 18.7539 12.2786 18.0756 12.4068 17.328C12.535 16.5803 12.3948 15.8114 12.0109 15.1571C11.627 14.5028 11.0241 14.0054 10.3089 13.7526V10.7128H12.4516C13.3041 10.7128 14.1216 10.3741 14.7244 9.77138C15.3271 9.16862 15.6658 8.35109 15.6658 7.49865V6.24443C16.3806 5.9917 16.9831 5.4944 17.3667 4.84042C17.7503 4.18644 17.8904 3.41789 17.7622 2.67061C17.634 1.92333 17.2457 1.24543 16.6661 0.756736C16.0864 0.268037 15.3526 0 14.5944 0C13.8362 0 13.1024 0.268037 12.5227 0.756736C11.943 1.24543 11.5548 1.92333 11.4265 2.67061C11.2983 3.41789 11.4384 4.18644 11.8221 4.84042C12.2057 5.4944 12.8082 5.9917 13.523 6.24443V7.49865C13.523 7.7828 13.4101 8.05531 13.2092 8.25623C13.0083 8.45715 12.7358 8.57003 12.4516 8.57003H6.02339C5.73924 8.57003 5.46673 8.45715 5.26581 8.25623C5.06489 8.05531 4.95201 7.7828 4.95201 7.49865V6.24443ZM10.3089 16.7839C10.3089 17.068 10.196 17.3406 9.99509 17.5415C9.79416 17.7424 9.52166 17.8553 9.23751 17.8553C8.95336 17.8553 8.68085 17.7424 8.47993 17.5415C8.27901 17.3406 8.16613 17.068 8.16613 16.7839C8.16613 16.4998 8.27901 16.2272 8.47993 16.0263C8.68085 15.8254 8.95336 15.7125 9.23751 15.7125C9.52166 15.7125 9.79416 15.8254 9.99509 16.0263C10.196 16.2272 10.3089 16.4998 10.3089 16.7839ZM14.5944 4.28453C14.8785 4.28453 15.151 4.17165 15.352 3.97073C15.5529 3.76981 15.6658 3.4973 15.6658 3.21315C15.6658 2.92901 15.5529 2.6565 15.352 2.45558C15.151 2.25466 14.8785 2.14178 14.5944 2.14178C14.3102 2.14178 14.0377 2.25466 13.8368 2.45558C13.6359 2.6565 13.523 2.92901 13.523 3.21315C13.523 3.4973 13.6359 3.76981 13.8368 3.97073C14.0377 4.17165 14.3102 4.28453 14.5944 4.28453Z" fill="#6ED370"/>
</svg>
