<svg width="21" height="19" viewBox="0 0 21 19" fill="none" xmlns="http://www.w3.org/2000/svg">
<path fill-rule="evenodd" clip-rule="evenodd" d="M11.604 0.937511C11.604 0.688868 11.5052 0.450408 11.3294 0.274591C11.1536 0.0987732 10.9151 0 10.6665 0C10.4179 0 10.1794 0.0987732 10.0036 0.274591C9.82777 0.450408 9.72899 0.688868 9.72899 0.937511V2.50003H8.49898C8.11772 2.50003 7.74397 2.60003 7.41272 2.78753L5.8027 3.70879C5.75513 3.73601 5.70125 3.75023 5.64645 3.75004H2.85391C2.60527 3.75004 2.36681 3.84882 2.19099 4.02463C2.01518 4.20045 1.9164 4.43891 1.9164 4.68755C1.9164 4.9362 2.01518 5.17466 2.19099 5.35047C2.36681 5.52629 2.60527 5.62507 2.85391 5.62507H3.38892L0.748888 11.4901C0.67091 11.6636 0.647562 11.8568 0.681945 12.0439C0.716329 12.231 0.806816 12.4032 0.94139 12.5376L1.6039 11.8751L0.94139 12.5376V12.5389L0.94389 12.5414L0.94639 12.5439L0.953891 12.5514L0.973891 12.5701L1.03014 12.6201C1.29303 12.8405 1.58083 13.0293 1.88765 13.1827C2.67479 13.5664 3.54078 13.7608 4.41643 13.7502C5.51644 13.7502 6.36145 13.4752 6.94521 13.1827C7.25202 13.0293 7.53982 12.8405 7.80272 12.6201L7.85897 12.5701L7.87897 12.5514L7.88647 12.5439L7.88897 12.5414L7.89022 12.5389L7.22896 11.8751L7.89147 12.5376C8.02605 12.4032 8.11653 12.231 8.15092 12.0439C8.1853 11.8568 8.16195 11.6636 8.08397 11.4901L5.44394 5.62507H5.64645C6.0277 5.62507 6.40145 5.52506 6.73271 5.33756L8.34398 4.4163C8.39118 4.3893 8.4446 4.37508 8.49898 4.37505H9.72899V16.2502H6.60396C6.35531 16.2502 6.11685 16.349 5.94104 16.5248C5.76522 16.7006 5.66645 16.9391 5.66645 17.1877C5.66645 17.4363 5.76522 17.6748 5.94104 17.8506C6.11685 18.0264 6.35531 18.1252 6.60396 18.1252H14.7291C14.9777 18.1252 15.2162 18.0264 15.392 17.8506C15.5678 17.6748 15.6666 17.4363 15.6666 17.1877C15.6666 16.9391 15.5678 16.7006 15.392 16.5248C15.2162 16.349 14.9777 16.2502 14.7291 16.2502H11.604V4.37505H12.834C12.8884 4.37508 12.9418 4.3893 12.989 4.4163L14.6016 5.33631C14.9316 5.52631 15.3053 5.62507 15.6866 5.62507H15.8891L13.249 11.4901C13.1711 11.6636 13.1477 11.8568 13.1821 12.0439C13.2165 12.231 13.307 12.4032 13.4415 12.5376L14.104 11.8751L13.4415 12.5376V12.5389L13.444 12.5414L13.4465 12.5439L13.454 12.5514L13.474 12.5701L13.5303 12.6201C13.7932 12.8405 14.081 13.0292 14.3878 13.1827C15.1749 13.5664 16.0409 13.7608 16.9166 13.7502C18.0166 13.7502 18.8616 13.4752 19.4454 13.1827C19.7522 13.0293 20.04 12.8405 20.3029 12.6201L20.3591 12.5701L20.3716 12.5576L20.3791 12.5514L20.3866 12.5439L20.3891 12.5414L20.3904 12.5389L19.7291 11.8751L20.3916 12.5376C20.5262 12.4032 20.6167 12.231 20.6511 12.0439C20.6854 11.8568 20.6621 11.6636 20.5841 11.4901L17.9453 5.62507H18.4791C18.7277 5.62507 18.9662 5.52629 19.142 5.35047C19.3178 5.17466 19.4166 4.9362 19.4166 4.68755C19.4166 4.43891 19.3178 4.20045 19.142 4.02463C18.9662 3.84882 18.7277 3.75004 18.4791 3.75004H15.6866C15.6322 3.75001 15.5788 3.73579 15.5316 3.70879L13.919 2.78878C13.589 2.59998 13.2155 2.50046 12.8353 2.50003H11.604V0.937511ZM2.78516 11.5339C3.14142 11.7026 3.68267 11.8751 4.41643 11.8751C5.15019 11.8751 5.69145 11.7026 6.0477 11.5339L4.41643 7.90884L2.78516 11.5339ZM15.2853 11.5339C15.6416 11.7026 16.1828 11.8751 16.9166 11.8751C17.6503 11.8751 18.1916 11.7026 18.5478 11.5339L16.9166 7.90884L15.2853 11.5339Z" fill="white"/>
</svg>
