<svg width="21" height="10" viewBox="0 0 21 10" fill="none" xmlns="http://www.w3.org/2000/svg">
<path d="M2.5665 5C2.5665 3.29 3.9565 1.9 5.6665 1.9H9.6665V0H5.6665C2.9065 0 0.666504 2.24 0.666504 5C0.666504 7.76 2.9065 10 5.6665 10H9.6665V8.1H5.6665C3.9565 8.1 2.5665 6.71 2.5665 5ZM6.6665 6H14.6665V4H6.6665V6ZM15.6665 0H11.6665V1.9H15.6665C17.3765 1.9 18.7665 3.29 18.7665 5C18.7665 6.71 17.3765 8.1 15.6665 8.1H11.6665V10H15.6665C18.4265 10 20.6665 7.76 20.6665 5C20.6665 2.24 18.4265 0 15.6665 0Z" fill="#58A6FF"/>
</svg>
