<svg width="23" height="16" viewBox="0 0 23 16" fill="none" xmlns="http://www.w3.org/2000/svg">
<path d="M11.6665 0.5C6.6665 0.5 2.3965 3.61 0.666504 8C2.3965 12.39 6.6665 15.5 11.6665 15.5C16.6665 15.5 20.9365 12.39 22.6665 8C20.9365 3.61 16.6665 0.5 11.6665 0.5ZM11.6665 13C8.9065 13 6.6665 10.76 6.6665 8C6.6665 5.24 8.9065 3 11.6665 3C14.4265 3 16.6665 5.24 16.6665 8C16.6665 10.76 14.4265 13 11.6665 13ZM11.6665 5C10.0065 5 8.6665 6.34 8.6665 8C8.6665 9.66 10.0065 11 11.6665 11C13.3265 11 14.6665 9.66 14.6665 8C14.6665 6.34 13.3265 5 11.6665 5Z" fill="#9CFFF9"/>
</svg>
